<mxfile host="app.diagrams.net" modified="2023-05-24T16:38:04.715Z" agent="Mozilla/5.0 (Linux; Android 10; K) AppleWebKit/537.36 (KHTML, like Gecko) Chrome/113.0.0.0 Mobile Safari/537.36" etag="ZkXQBRpBFxeyoH_O-5kK" version="21.3.3" type="onedrive">
  <diagram name="PÃ¡gina-1" id="NUfsqnygRZmhG4JR2QGV">
    <mxGraphModel grid="1" page="1" gridSize="10" guides="1" tooltips="1" connect="1" arrows="1" fold="1" pageScale="1" pageWidth="1169" pageHeight="1654" math="0" shadow="1">
      <root>
        <mxCell id="0" />
        <mxCell id="1" parent="0" />
        <mxCell id="F2TKBF6CCEz36gfDEs-T-1" value="Obra" style="whiteSpace=wrap;html=1;align=center;rounded=0;fillColor=#ffe6cc;strokeColor=#d79b00;" vertex="1" parent="1">
          <mxGeometry x="-79" y="380" width="100" height="40" as="geometry" />
        </mxCell>
        <mxCell id="F2TKBF6CCEz36gfDEs-T-3" value="" style="endArrow=none;html=1;rounded=0;" edge="1" parent="1" source="WZIur2dekSQXCgkH3FN3-8" target="F2TKBF6CCEz36gfDEs-T-1">
          <mxGeometry relative="1" as="geometry">
            <mxPoint x="-214.78693422477636" y="445.80118315515176" as="sourcePoint" />
            <mxPoint x="208.5" y="300" as="targetPoint" />
          </mxGeometry>
        </mxCell>
        <mxCell id="F2TKBF6CCEz36gfDEs-T-4" value="Genero" style="ellipse;whiteSpace=wrap;html=1;align=center;rounded=0;" vertex="1" parent="1">
          <mxGeometry x="-339" y="350" width="100" height="40" as="geometry" />
        </mxCell>
        <mxCell id="F2TKBF6CCEz36gfDEs-T-6" value="Epoca" style="ellipse;whiteSpace=wrap;html=1;align=center;rounded=0;" vertex="1" parent="1">
          <mxGeometry x="-269" y="300" width="100" height="40" as="geometry" />
        </mxCell>
        <mxCell id="F2TKBF6CCEz36gfDEs-T-9" value="" style="endArrow=none;html=1;rounded=0;" edge="1" parent="1" source="F2TKBF6CCEz36gfDEs-T-1" target="F2TKBF6CCEz36gfDEs-T-4">
          <mxGeometry relative="1" as="geometry">
            <mxPoint x="-21.5" y="290" as="sourcePoint" />
            <mxPoint x="138.5" y="290" as="targetPoint" />
          </mxGeometry>
        </mxCell>
        <mxCell id="F2TKBF6CCEz36gfDEs-T-10" value="" style="endArrow=none;html=1;rounded=0;" edge="1" parent="1" source="F2TKBF6CCEz36gfDEs-T-1" target="F2TKBF6CCEz36gfDEs-T-6">
          <mxGeometry relative="1" as="geometry">
            <mxPoint x="38.5" y="340" as="sourcePoint" />
            <mxPoint x="38.5" y="280" as="targetPoint" />
          </mxGeometry>
        </mxCell>
        <mxCell id="F2TKBF6CCEz36gfDEs-T-23" value="Instrumento" style="whiteSpace=wrap;html=1;align=center;rounded=0;fillColor=#ffe6cc;strokeColor=#d79b00;" vertex="1" parent="1">
          <mxGeometry x="440" y="702" width="100" height="40" as="geometry" />
        </mxCell>
        <mxCell id="F2TKBF6CCEz36gfDEs-T-25" value="Categoria" style="ellipse;whiteSpace=wrap;html=1;align=center;rounded=0;" vertex="1" parent="1">
          <mxGeometry x="920" y="750" width="100" height="40" as="geometry" />
        </mxCell>
        <mxCell id="F2TKBF6CCEz36gfDEs-T-26" value="" style="endArrow=none;html=1;rounded=0;entryX=1;entryY=0.75;entryDx=0;entryDy=0;" edge="1" parent="1" source="F2TKBF6CCEz36gfDEs-T-25" target="R54soB560cXvakf5v9Yd-10">
          <mxGeometry relative="1" as="geometry">
            <mxPoint x="-195" y="637" as="sourcePoint" />
            <mxPoint x="590" y="906.6666666666667" as="targetPoint" />
          </mxGeometry>
        </mxCell>
        <mxCell id="F2TKBF6CCEz36gfDEs-T-29" value="" style="endArrow=none;html=1;rounded=0;exitX=0.031;exitY=0.741;exitDx=0;exitDy=0;exitPerimeter=0;" edge="1" parent="1" source="Z_2YrPBkpbISrrUh0GBC-1" target="R54soB560cXvakf5v9Yd-10">
          <mxGeometry relative="1" as="geometry">
            <mxPoint x="363" y="655" as="sourcePoint" />
            <mxPoint x="486" y="710" as="targetPoint" />
          </mxGeometry>
        </mxCell>
        <mxCell id="F2TKBF6CCEz36gfDEs-T-33" value="" style="endArrow=none;html=1;rounded=0;" edge="1" parent="1" source="WZIur2dekSQXCgkH3FN3-9" target="F2TKBF6CCEz36gfDEs-T-23">
          <mxGeometry relative="1" as="geometry">
            <mxPoint x="755" y="996" as="sourcePoint" />
            <mxPoint x="820" y="1047" as="targetPoint" />
          </mxGeometry>
        </mxCell>
        <mxCell id="F2TKBF6CCEz36gfDEs-T-34" value="Fecha&lt;br&gt;&amp;nbsp;Adquisicion" style="ellipse;whiteSpace=wrap;html=1;align=center;rounded=0;" vertex="1" parent="1">
          <mxGeometry x="430" y="570" width="100" height="50" as="geometry" />
        </mxCell>
        <mxCell id="F2TKBF6CCEz36gfDEs-T-35" value="" style="endArrow=none;html=1;rounded=0;" edge="1" parent="1" source="F2TKBF6CCEz36gfDEs-T-34" target="F2TKBF6CCEz36gfDEs-T-23">
          <mxGeometry relative="1" as="geometry">
            <mxPoint x="859" y="987" as="sourcePoint" />
            <mxPoint x="851" y="1097" as="targetPoint" />
          </mxGeometry>
        </mxCell>
        <mxCell id="F2TKBF6CCEz36gfDEs-T-36" value="Estado&lt;br&gt;Conservacion" style="ellipse;whiteSpace=wrap;html=1;align=center;rounded=0;" vertex="1" parent="1">
          <mxGeometry x="540" y="620" width="100" height="50" as="geometry" />
        </mxCell>
        <mxCell id="F2TKBF6CCEz36gfDEs-T-37" value="" style="endArrow=none;html=1;rounded=0;" edge="1" parent="1" source="F2TKBF6CCEz36gfDEs-T-36" target="F2TKBF6CCEz36gfDEs-T-23">
          <mxGeometry relative="1" as="geometry">
            <mxPoint x="919" y="1045" as="sourcePoint" />
            <mxPoint x="869" y="1097" as="targetPoint" />
          </mxGeometry>
        </mxCell>
        <mxCell id="F2TKBF6CCEz36gfDEs-T-43" value="Musico" style="whiteSpace=wrap;html=1;align=center;fillColor=#ffe6cc;strokeColor=#d79b00;" vertex="1" parent="1">
          <mxGeometry x="136.25" y="1009.69" width="100" height="40" as="geometry" />
        </mxCell>
        <mxCell id="F2TKBF6CCEz36gfDEs-T-51" value="Nombre" style="ellipse;whiteSpace=wrap;html=1;align=center;rounded=0;" vertex="1" parent="1">
          <mxGeometry x="-16.25" y="969.69" width="100" height="40" as="geometry" />
        </mxCell>
        <mxCell id="F2TKBF6CCEz36gfDEs-T-52" value="" style="endArrow=none;html=1;rounded=0;" edge="1" parent="1" source="F2TKBF6CCEz36gfDEs-T-43" target="F2TKBF6CCEz36gfDEs-T-51">
          <mxGeometry relative="1" as="geometry">
            <mxPoint x="170.75" y="956.69" as="sourcePoint" />
            <mxPoint x="156.75" y="935.69" as="targetPoint" />
          </mxGeometry>
        </mxCell>
        <mxCell id="F2TKBF6CCEz36gfDEs-T-53" value="Actuacion" style="whiteSpace=wrap;html=1;align=center;fillColor=#ffe6cc;strokeColor=#d79b00;" vertex="1" parent="1">
          <mxGeometry x="-80" y="700" width="100" height="40" as="geometry" />
        </mxCell>
        <mxCell id="F2TKBF6CCEz36gfDEs-T-55" value="" style="endArrow=none;html=1;rounded=0;" edge="1" parent="1" source="F2TKBF6CCEz36gfDEs-T-53">
          <mxGeometry relative="1" as="geometry">
            <mxPoint x="327" y="690" as="sourcePoint" />
            <mxPoint x="-110" y="740" as="targetPoint" />
          </mxGeometry>
        </mxCell>
        <mxCell id="F2TKBF6CCEz36gfDEs-T-57" value="" style="endArrow=none;html=1;rounded=0;exitX=0;exitY=0.5;exitDx=0;exitDy=0;" edge="1" parent="1" source="bRrDwt_AE6-zE5yciTz6-7" target="F2TKBF6CCEz36gfDEs-T-59">
          <mxGeometry relative="1" as="geometry">
            <mxPoint x="-197.16176695820468" y="746.6425023884794" as="sourcePoint" />
            <mxPoint x="-390" y="655" as="targetPoint" />
          </mxGeometry>
        </mxCell>
        <mxCell id="F2TKBF6CCEz36gfDEs-T-59" value="&lt;p style=&quot;line-height: 120%;&quot;&gt;&lt;font style=&quot;font-size: 9px;&quot;&gt;Dia&lt;/font&gt;&lt;/p&gt;" style="ellipse;whiteSpace=wrap;html=1;align=center;rounded=0;" vertex="1" parent="1">
          <mxGeometry x="-280" y="740" width="60" height="30" as="geometry" />
        </mxCell>
        <mxCell id="F2TKBF6CCEz36gfDEs-T-60" value="&lt;p style=&quot;line-height: 120%;&quot;&gt;&lt;font size=&quot;1&quot;&gt;Hora&lt;/font&gt;&lt;/p&gt;" style="ellipse;whiteSpace=wrap;html=1;align=center;rounded=0;" vertex="1" parent="1">
          <mxGeometry x="-210" y="797" width="60" height="30" as="geometry" />
        </mxCell>
        <mxCell id="F2TKBF6CCEz36gfDEs-T-61" value="" style="endArrow=none;html=1;rounded=0;exitX=0.5;exitY=1;exitDx=0;exitDy=0;" edge="1" parent="1" source="bRrDwt_AE6-zE5yciTz6-7" target="F2TKBF6CCEz36gfDEs-T-60">
          <mxGeometry relative="1" as="geometry">
            <mxPoint x="-150" y="760" as="sourcePoint" />
            <mxPoint x="-371" y="654" as="targetPoint" />
          </mxGeometry>
        </mxCell>
        <mxCell id="F2TKBF6CCEz36gfDEs-T-63" value="" style="endArrow=none;html=1;rounded=0;entryX=1;entryY=1;entryDx=0;entryDy=0;" edge="1" parent="1" source="F2TKBF6CCEz36gfDEs-T-53" target="bRrDwt_AE6-zE5yciTz6-5">
          <mxGeometry relative="1" as="geometry">
            <mxPoint x="-80" y="700" as="sourcePoint" />
            <mxPoint x="-140.02447542946788" y="661.0073379509305" as="targetPoint" />
          </mxGeometry>
        </mxCell>
        <mxCell id="APVeMAIhSpdHvaPCX0QN-1" value="Es &lt;br&gt;nueva version&lt;br&gt;&amp;nbsp;" style="shape=rhombus;perimeter=rhombusPerimeter;whiteSpace=wrap;html=1;align=center;verticalAlign=middle;fillColor=#f8cecc;strokeColor=#b85450;" vertex="1" parent="1">
          <mxGeometry x="-100" y="240" width="120" height="60" as="geometry" />
        </mxCell>
        <mxCell id="R54soB560cXvakf5v9Yd-1" value="Requiere" style="shape=rhombus;perimeter=rhombusPerimeter;whiteSpace=wrap;html=1;align=center;fillColor=#f8cecc;strokeColor=#b85450;" vertex="1" parent="1">
          <mxGeometry x="730" y="375" width="120" height="60" as="geometry" />
        </mxCell>
        <mxCell id="R54soB560cXvakf5v9Yd-4" value="" style="endArrow=none;html=1;rounded=0;exitX=0.5;exitY=0;exitDx=0;exitDy=0;entryX=0.5;entryY=1;entryDx=0;entryDy=0;" edge="1" parent="1" source="R54soB560cXvakf5v9Yd-1" target="R54soB560cXvakf5v9Yd-6">
          <mxGeometry relative="1" as="geometry">
            <mxPoint x="59" y="395" as="sourcePoint" />
            <mxPoint x="370" y="285" as="targetPoint" />
          </mxGeometry>
        </mxCell>
        <mxCell id="R54soB560cXvakf5v9Yd-6" value="Unidades" style="ellipse;whiteSpace=wrap;html=1;align=center;rounded=0;" vertex="1" parent="1">
          <mxGeometry x="740" y="300" width="100" height="40" as="geometry" />
        </mxCell>
        <mxCell id="R54soB560cXvakf5v9Yd-10" value="Tipo&lt;br&gt;Instrumento" style="whiteSpace=wrap;html=1;align=center;rounded=0;shadow=0;fillColor=#ffe6cc;strokeColor=#d79b00;" vertex="1" parent="1">
          <mxGeometry x="740" y="700" width="100" height="40" as="geometry" />
        </mxCell>
        <mxCell id="R54soB560cXvakf5v9Yd-11" value="Es" style="shape=rhombus;perimeter=rhombusPerimeter;whiteSpace=wrap;html=1;align=center;fillColor=#f8cecc;strokeColor=#b85450;" vertex="1" parent="1">
          <mxGeometry x="585" y="692" width="120" height="60" as="geometry" />
        </mxCell>
        <mxCell id="R54soB560cXvakf5v9Yd-25" value="" style="endArrow=none;html=1;rounded=0;" edge="1" parent="1" source="F2TKBF6CCEz36gfDEs-T-43" target="R54soB560cXvakf5v9Yd-26">
          <mxGeometry relative="1" as="geometry">
            <mxPoint x="181.25" y="1184.4673876381337" as="sourcePoint" />
            <mxPoint x="103.75" y="1154.69" as="targetPoint" />
          </mxGeometry>
        </mxCell>
        <mxCell id="R54soB560cXvakf5v9Yd-26" value="Contacto" style="ellipse;whiteSpace=wrap;html=1;align=center;rounded=0;" vertex="1" parent="1">
          <mxGeometry x="93.75" y="1114.69" width="100" height="40" as="geometry" />
        </mxCell>
        <mxCell id="R54soB560cXvakf5v9Yd-27" value="&lt;p style=&quot;line-height: 120%;&quot;&gt;&lt;font style=&quot;font-size: 9px;&quot;&gt;Telefono&lt;/font&gt;&lt;/p&gt;" style="ellipse;whiteSpace=wrap;html=1;align=center;rounded=0;" vertex="1" parent="1">
          <mxGeometry x="60" y="1169.69" width="60" height="30" as="geometry" />
        </mxCell>
        <mxCell id="R54soB560cXvakf5v9Yd-28" value="" style="endArrow=none;html=1;rounded=0;entryX=0.996;entryY=0.372;entryDx=0;entryDy=0;entryPerimeter=0;" edge="1" parent="1" source="R54soB560cXvakf5v9Yd-40" target="WZIur2dekSQXCgkH3FN3-11">
          <mxGeometry relative="1" as="geometry">
            <mxPoint x="155.75" y="974.69" as="sourcePoint" />
            <mxPoint x="206.75" y="949.69" as="targetPoint" />
          </mxGeometry>
        </mxCell>
        <mxCell id="R54soB560cXvakf5v9Yd-29" value="&lt;p style=&quot;line-height: 120%;&quot;&gt;&lt;font style=&quot;font-size: 9px;&quot;&gt;Correo&lt;/font&gt;&lt;/p&gt;" style="ellipse;whiteSpace=wrap;html=1;align=center;rounded=0;" vertex="1" parent="1">
          <mxGeometry x="170" y="1180" width="60" height="30" as="geometry" />
        </mxCell>
        <mxCell id="R54soB560cXvakf5v9Yd-30" value="" style="endArrow=none;html=1;rounded=0;" edge="1" parent="1" source="R54soB560cXvakf5v9Yd-26" target="R54soB560cXvakf5v9Yd-29">
          <mxGeometry relative="1" as="geometry">
            <mxPoint x="38.75" y="1185.69" as="sourcePoint" />
            <mxPoint x="59.78508839726942" y="1134.5584185102393" as="targetPoint" />
          </mxGeometry>
        </mxCell>
        <mxCell id="R54soB560cXvakf5v9Yd-39" value="" style="endArrow=none;html=1;rounded=0;entryX=0.168;entryY=0.987;entryDx=0;entryDy=0;entryPerimeter=0;" edge="1" parent="1" source="R54soB560cXvakf5v9Yd-40" target="F2TKBF6CCEz36gfDEs-T-43">
          <mxGeometry relative="1" as="geometry">
            <mxPoint x="223.75" y="1249.69" as="sourcePoint" />
            <mxPoint x="90.80882352941194" y="1219.69" as="targetPoint" />
          </mxGeometry>
        </mxCell>
        <mxCell id="R54soB560cXvakf5v9Yd-41" value="Sabe Tocar" style="shape=rhombus;perimeter=rhombusPerimeter;whiteSpace=wrap;html=1;align=center;fillColor=#f8cecc;strokeColor=#b85450;" vertex="1" parent="1">
          <mxGeometry x="435" y="1089.69" width="120" height="60" as="geometry" />
        </mxCell>
        <mxCell id="R54soB560cXvakf5v9Yd-43" value="" style="endArrow=none;html=1;rounded=0;exitX=1;exitY=0.5;exitDx=0;exitDy=0;" edge="1" parent="1" source="R54soB560cXvakf5v9Yd-41" target="R54soB560cXvakf5v9Yd-10">
          <mxGeometry relative="1" as="geometry">
            <mxPoint x="530.0000000000005" y="970" as="sourcePoint" />
            <mxPoint x="630" y="820" as="targetPoint" />
            <Array as="points">
              <mxPoint x="790" y="1120" />
            </Array>
          </mxGeometry>
        </mxCell>
        <mxCell id="R54soB560cXvakf5v9Yd-44" value="N" style="resizable=0;html=1;whiteSpace=wrap;align=right;verticalAlign=bottom;" connectable="0" vertex="1" parent="R54soB560cXvakf5v9Yd-43">
          <mxGeometry x="1" relative="1" as="geometry">
            <mxPoint x="-10" y="190" as="offset" />
          </mxGeometry>
        </mxCell>
        <mxCell id="R54soB560cXvakf5v9Yd-49" value="" style="endArrow=none;html=1;rounded=0;entryX=0.5;entryY=0;entryDx=0;entryDy=0;" edge="1" parent="1" source="R54soB560cXvakf5v9Yd-1" target="R54soB560cXvakf5v9Yd-10">
          <mxGeometry relative="1" as="geometry">
            <mxPoint x="640" y="670" as="sourcePoint" />
            <mxPoint x="790" y="710" as="targetPoint" />
          </mxGeometry>
        </mxCell>
        <mxCell id="R54soB560cXvakf5v9Yd-50" value="N" style="resizable=0;html=1;whiteSpace=wrap;align=right;verticalAlign=bottom;direction=south;" connectable="0" vertex="1" parent="R54soB560cXvakf5v9Yd-49">
          <mxGeometry x="1" relative="1" as="geometry">
            <mxPoint x="-30" y="-111" as="offset" />
          </mxGeometry>
        </mxCell>
        <mxCell id="R54soB560cXvakf5v9Yd-78" value="" style="shape=link;html=1;rounded=0;exitX=0;exitY=0.5;exitDx=0;exitDy=0;entryX=1;entryY=0.75;entryDx=0;entryDy=0;" edge="1" parent="1" source="R54soB560cXvakf5v9Yd-41" target="F2TKBF6CCEz36gfDEs-T-43">
          <mxGeometry relative="1" as="geometry">
            <mxPoint x="425.75" y="909.69" as="sourcePoint" />
            <mxPoint x="313.75" y="1029.69" as="targetPoint" />
          </mxGeometry>
        </mxCell>
        <mxCell id="R54soB560cXvakf5v9Yd-79" value="N" style="resizable=0;html=1;whiteSpace=wrap;align=right;verticalAlign=bottom;" connectable="0" vertex="1" parent="R54soB560cXvakf5v9Yd-78">
          <mxGeometry x="1" relative="1" as="geometry">
            <mxPoint x="94" y="95" as="offset" />
          </mxGeometry>
        </mxCell>
        <mxCell id="R54soB560cXvakf5v9Yd-86" value="" style="shape=link;html=1;rounded=0;exitX=1;exitY=0.5;exitDx=0;exitDy=0;entryX=0.067;entryY=0.486;entryDx=0;entryDy=0;entryPerimeter=0;" edge="1" parent="1" source="F2TKBF6CCEz36gfDEs-T-53" target="R54soB560cXvakf5v9Yd-83">
          <mxGeometry relative="1" as="geometry">
            <mxPoint x="20" y="730" as="sourcePoint" />
            <mxPoint x="180" y="730" as="targetPoint" />
          </mxGeometry>
        </mxCell>
        <mxCell id="R54soB560cXvakf5v9Yd-87" value="N" style="resizable=0;html=1;whiteSpace=wrap;align=right;verticalAlign=bottom;" connectable="0" vertex="1" parent="R54soB560cXvakf5v9Yd-86">
          <mxGeometry x="1" relative="1" as="geometry">
            <mxPoint x="-50" y="-14" as="offset" />
          </mxGeometry>
        </mxCell>
        <mxCell id="R54soB560cXvakf5v9Yd-88" value="" style="endArrow=none;html=1;rounded=0;exitX=0.5;exitY=1;exitDx=0;exitDy=0;entryX=0.5;entryY=0;entryDx=0;entryDy=0;" edge="1" parent="1" source="R54soB560cXvakf5v9Yd-83" target="F2TKBF6CCEz36gfDEs-T-43">
          <mxGeometry relative="1" as="geometry">
            <mxPoint x="260" y="780" as="sourcePoint" />
            <mxPoint x="420" y="780" as="targetPoint" />
          </mxGeometry>
        </mxCell>
        <mxCell id="R54soB560cXvakf5v9Yd-89" value="N" style="resizable=0;html=1;whiteSpace=wrap;align=right;verticalAlign=bottom;" connectable="0" vertex="1" parent="R54soB560cXvakf5v9Yd-88">
          <mxGeometry x="1" relative="1" as="geometry">
            <mxPoint x="-10" y="-27" as="offset" />
          </mxGeometry>
        </mxCell>
        <mxCell id="R54soB560cXvakf5v9Yd-90" value="" style="endArrow=none;html=1;rounded=0;exitX=1;exitY=0.5;exitDx=0;exitDy=0;" edge="1" parent="1" source="R54soB560cXvakf5v9Yd-83" target="F2TKBF6CCEz36gfDEs-T-23">
          <mxGeometry relative="1" as="geometry">
            <mxPoint x="270" y="710" as="sourcePoint" />
            <mxPoint x="430" y="710" as="targetPoint" />
          </mxGeometry>
        </mxCell>
        <mxCell id="R54soB560cXvakf5v9Yd-91" value="N" style="resizable=0;html=1;whiteSpace=wrap;align=right;verticalAlign=bottom;direction=south;" connectable="0" vertex="1" parent="R54soB560cXvakf5v9Yd-90">
          <mxGeometry x="1" relative="1" as="geometry">
            <mxPoint x="-100" y="-20" as="offset" />
          </mxGeometry>
        </mxCell>
        <mxCell id="R54soB560cXvakf5v9Yd-97" value="" style="endArrow=none;html=1;rounded=0;entryX=0;entryY=0.5;entryDx=0;entryDy=0;" edge="1" parent="1" source="F2TKBF6CCEz36gfDEs-T-1" target="APVeMAIhSpdHvaPCX0QN-1">
          <mxGeometry relative="1" as="geometry">
            <mxPoint x="-49" y="460" as="sourcePoint" />
            <mxPoint x="111" y="460" as="targetPoint" />
          </mxGeometry>
        </mxCell>
        <mxCell id="R54soB560cXvakf5v9Yd-98" value="N" style="resizable=0;html=1;whiteSpace=wrap;align=right;verticalAlign=bottom;" connectable="0" vertex="1" parent="R54soB560cXvakf5v9Yd-97">
          <mxGeometry x="1" relative="1" as="geometry">
            <mxPoint x="10" y="70" as="offset" />
          </mxGeometry>
        </mxCell>
        <mxCell id="R54soB560cXvakf5v9Yd-99" value="" style="shape=link;html=1;rounded=0;" edge="1" parent="1" source="F2TKBF6CCEz36gfDEs-T-1" target="R54soB560cXvakf5v9Yd-1">
          <mxGeometry relative="1" as="geometry">
            <mxPoint x="160" y="470" as="sourcePoint" />
            <mxPoint x="320" y="470" as="targetPoint" />
          </mxGeometry>
        </mxCell>
        <mxCell id="R54soB560cXvakf5v9Yd-100" value="N" style="resizable=0;html=1;whiteSpace=wrap;align=right;verticalAlign=bottom;" connectable="0" vertex="1" parent="R54soB560cXvakf5v9Yd-99">
          <mxGeometry x="1" relative="1" as="geometry">
            <mxPoint x="-321" y="-20" as="offset" />
          </mxGeometry>
        </mxCell>
        <mxCell id="R54soB560cXvakf5v9Yd-101" value="" style="shape=link;html=1;rounded=0;" edge="1" parent="1" source="F2TKBF6CCEz36gfDEs-T-23" target="R54soB560cXvakf5v9Yd-11">
          <mxGeometry relative="1" as="geometry">
            <mxPoint x="800" y="1137" as="sourcePoint" />
            <mxPoint x="830" y="940" as="targetPoint" />
          </mxGeometry>
        </mxCell>
        <mxCell id="R54soB560cXvakf5v9Yd-102" value="N" style="resizable=0;html=1;whiteSpace=wrap;align=right;verticalAlign=bottom;" connectable="0" vertex="1" parent="R54soB560cXvakf5v9Yd-101">
          <mxGeometry x="1" relative="1" as="geometry">
            <mxPoint x="-16" y="23" as="offset" />
          </mxGeometry>
        </mxCell>
        <mxCell id="R54soB560cXvakf5v9Yd-103" value="" style="endArrow=none;html=1;rounded=0;exitX=1;exitY=0.5;exitDx=0;exitDy=0;" edge="1" parent="1" source="R54soB560cXvakf5v9Yd-11" target="R54soB560cXvakf5v9Yd-10">
          <mxGeometry relative="1" as="geometry">
            <mxPoint x="640" y="660" as="sourcePoint" />
            <mxPoint x="800" y="660" as="targetPoint" />
          </mxGeometry>
        </mxCell>
        <mxCell id="R54soB560cXvakf5v9Yd-104" value="1" style="resizable=0;html=1;whiteSpace=wrap;align=right;verticalAlign=bottom;" connectable="0" vertex="1" parent="R54soB560cXvakf5v9Yd-103">
          <mxGeometry x="1" relative="1" as="geometry">
            <mxPoint x="-20" y="31" as="offset" />
          </mxGeometry>
        </mxCell>
        <mxCell id="R54soB560cXvakf5v9Yd-122" value="" style="endArrow=none;html=1;rounded=0;entryX=1;entryY=0.5;entryDx=0;entryDy=0;" edge="1" parent="1" source="WZIur2dekSQXCgkH3FN3-13" target="R54soB560cXvakf5v9Yd-10">
          <mxGeometry relative="1" as="geometry">
            <mxPoint x="543" y="470" as="sourcePoint" />
            <mxPoint x="607" y="500" as="targetPoint" />
          </mxGeometry>
        </mxCell>
        <mxCell id="7u01iin0jwhjByY1DlLq-4" value="" style="edgeStyle=orthogonalEdgeStyle;rounded=0;orthogonalLoop=1;jettySize=auto;html=1;" edge="1" parent="1" source="R54soB560cXvakf5v9Yd-125" target="F2TKBF6CCEz36gfDEs-T-23">
          <mxGeometry relative="1" as="geometry" />
        </mxCell>
        <mxCell id="R54soB560cXvakf5v9Yd-125" value="Asignado" style="shape=rhombus;perimeter=rhombusPerimeter;whiteSpace=wrap;html=1;align=center;fillColor=#f8cecc;strokeColor=#b85450;" vertex="1" parent="1">
          <mxGeometry x="430" y="790" width="120" height="60" as="geometry" />
        </mxCell>
        <mxCell id="R54soB560cXvakf5v9Yd-126" value="Historico&lt;br&gt;Prestamo" style="shape=ext;margin=3;double=1;whiteSpace=wrap;html=1;align=center;fillColor=#ffe6cc;strokeColor=#d79b00;" vertex="1" parent="1">
          <mxGeometry x="440" y="900" width="100" height="40" as="geometry" />
        </mxCell>
        <mxCell id="R54soB560cXvakf5v9Yd-127" value="" style="shape=link;html=1;rounded=0;exitX=0;exitY=0.5;exitDx=0;exitDy=0;" edge="1" parent="1" source="R54soB560cXvakf5v9Yd-129" target="F2TKBF6CCEz36gfDEs-T-43">
          <mxGeometry relative="1" as="geometry">
            <mxPoint x="273.75" y="1129.69" as="sourcePoint" />
            <mxPoint x="208.75" y="996.69" as="targetPoint" />
          </mxGeometry>
        </mxCell>
        <mxCell id="R54soB560cXvakf5v9Yd-128" value="1" style="resizable=0;html=1;whiteSpace=wrap;align=right;verticalAlign=bottom;" connectable="0" vertex="1" parent="R54soB560cXvakf5v9Yd-127">
          <mxGeometry x="1" relative="1" as="geometry">
            <mxPoint x="104" y="-10" as="offset" />
          </mxGeometry>
        </mxCell>
        <mxCell id="R54soB560cXvakf5v9Yd-129" value="Tiene" style="shape=rhombus;double=1;perimeter=rhombusPerimeter;whiteSpace=wrap;html=1;align=center;fillColor=#f8cecc;strokeColor=#b85450;" vertex="1" parent="1">
          <mxGeometry x="430" y="999.69" width="120" height="60" as="geometry" />
        </mxCell>
        <mxCell id="R54soB560cXvakf5v9Yd-130" value="" style="shape=link;html=1;rounded=0;entryX=0.5;entryY=0;entryDx=0;entryDy=0;" edge="1" parent="1" source="R54soB560cXvakf5v9Yd-126" target="R54soB560cXvakf5v9Yd-129">
          <mxGeometry relative="1" as="geometry">
            <mxPoint x="423.75" y="1129.69" as="sourcePoint" />
            <mxPoint x="390.75" y="1095.69" as="targetPoint" />
          </mxGeometry>
        </mxCell>
        <mxCell id="R54soB560cXvakf5v9Yd-131" value="N" style="resizable=0;html=1;whiteSpace=wrap;align=right;verticalAlign=bottom;" connectable="0" vertex="1" parent="R54soB560cXvakf5v9Yd-130">
          <mxGeometry x="1" relative="1" as="geometry">
            <mxPoint x="21" as="offset" />
          </mxGeometry>
        </mxCell>
        <mxCell id="R54soB560cXvakf5v9Yd-132" value="&lt;p style=&quot;line-height: 120%;&quot;&gt;&lt;font size=&quot;1&quot;&gt;fecha final&lt;/font&gt;&lt;/p&gt;" style="ellipse;whiteSpace=wrap;html=1;align=center;rounded=0;fontStyle=0" vertex="1" parent="1">
          <mxGeometry x="560" y="920" width="60" height="30" as="geometry" />
        </mxCell>
        <mxCell id="R54soB560cXvakf5v9Yd-133" value="" style="endArrow=none;html=1;rounded=0;exitX=1;exitY=0.75;exitDx=0;exitDy=0;" edge="1" parent="1" source="R54soB560cXvakf5v9Yd-126" target="R54soB560cXvakf5v9Yd-132">
          <mxGeometry relative="1" as="geometry">
            <mxPoint x="330" y="1339.69" as="sourcePoint" />
            <mxPoint x="368" y="1240.69" as="targetPoint" />
          </mxGeometry>
        </mxCell>
        <mxCell id="R54soB560cXvakf5v9Yd-134" value="" style="endArrow=none;html=1;rounded=0;" edge="1" parent="1" source="R54soB560cXvakf5v9Yd-126" target="R54soB560cXvakf5v9Yd-135">
          <mxGeometry relative="1" as="geometry">
            <mxPoint x="377" y="1339.69" as="sourcePoint" />
            <mxPoint x="368" y="1240.69" as="targetPoint" />
          </mxGeometry>
        </mxCell>
        <mxCell id="R54soB560cXvakf5v9Yd-135" value="&lt;span style=&quot;border-bottom: 1px dotted; font-size: 11px;&quot;&gt;fecha inicio&lt;br&gt;&lt;/span&gt;" style="ellipse;whiteSpace=wrap;html=1;align=center;fontSize=11;" vertex="1" parent="1">
          <mxGeometry x="555" y="870" width="75" height="30" as="geometry" />
        </mxCell>
        <mxCell id="R54soB560cXvakf5v9Yd-137" value="" style="endArrow=none;html=1;rounded=0;entryX=0.5;entryY=1;entryDx=0;entryDy=0;exitX=0.5;exitY=0;exitDx=0;exitDy=0;" edge="1" parent="1" source="R54soB560cXvakf5v9Yd-125" target="F2TKBF6CCEz36gfDEs-T-23">
          <mxGeometry relative="1" as="geometry">
            <mxPoint x="680" y="1180" as="sourcePoint" />
            <mxPoint x="880" y="1150" as="targetPoint" />
          </mxGeometry>
        </mxCell>
        <mxCell id="R54soB560cXvakf5v9Yd-138" value="1" style="resizable=0;html=1;whiteSpace=wrap;align=right;verticalAlign=bottom;" connectable="0" vertex="1" parent="R54soB560cXvakf5v9Yd-137">
          <mxGeometry x="1" relative="1" as="geometry">
            <mxPoint x="20" y="38" as="offset" />
          </mxGeometry>
        </mxCell>
        <mxCell id="R54soB560cXvakf5v9Yd-139" value="" style="endArrow=none;html=1;rounded=0;exitX=0.5;exitY=0;exitDx=0;exitDy=0;entryX=0.5;entryY=1;entryDx=0;entryDy=0;" edge="1" parent="1" source="R54soB560cXvakf5v9Yd-126" target="R54soB560cXvakf5v9Yd-125">
          <mxGeometry relative="1" as="geometry">
            <mxPoint x="683.75" y="1299.69" as="sourcePoint" />
            <mxPoint x="451.99700109051264" y="967.5635005452564" as="targetPoint" />
          </mxGeometry>
        </mxCell>
        <mxCell id="R54soB560cXvakf5v9Yd-140" value="N" style="resizable=0;html=1;whiteSpace=wrap;align=right;verticalAlign=bottom;" connectable="0" vertex="1" parent="R54soB560cXvakf5v9Yd-139">
          <mxGeometry x="1" relative="1" as="geometry">
            <mxPoint x="20" y="35" as="offset" />
          </mxGeometry>
        </mxCell>
        <mxCell id="R54soB560cXvakf5v9Yd-144" value="Contiene" style="shape=rhombus;perimeter=rhombusPerimeter;whiteSpace=wrap;html=1;align=center;verticalAlign=middle;fillColor=#f8cecc;strokeColor=#b85450;" vertex="1" parent="1">
          <mxGeometry x="-90" y="550" width="120" height="60" as="geometry" />
        </mxCell>
        <mxCell id="R54soB560cXvakf5v9Yd-145" value="" style="endArrow=none;html=1;rounded=0;exitX=0.5;exitY=0;exitDx=0;exitDy=0;" edge="1" parent="1" source="R54soB560cXvakf5v9Yd-144" target="F2TKBF6CCEz36gfDEs-T-1">
          <mxGeometry relative="1" as="geometry">
            <mxPoint y="570" as="sourcePoint" />
            <mxPoint x="160" y="570" as="targetPoint" />
          </mxGeometry>
        </mxCell>
        <mxCell id="R54soB560cXvakf5v9Yd-146" value="N" style="resizable=0;html=1;whiteSpace=wrap;align=right;verticalAlign=bottom;" connectable="0" vertex="1" parent="R54soB560cXvakf5v9Yd-145">
          <mxGeometry x="1" relative="1" as="geometry">
            <mxPoint x="-28" y="70" as="offset" />
          </mxGeometry>
        </mxCell>
        <mxCell id="R54soB560cXvakf5v9Yd-149" value="" style="shape=link;html=1;rounded=0;" edge="1" parent="1" source="F2TKBF6CCEz36gfDEs-T-53">
          <mxGeometry relative="1" as="geometry">
            <mxPoint x="-50" y="650" as="sourcePoint" />
            <mxPoint x="-50" y="440" as="targetPoint" />
          </mxGeometry>
        </mxCell>
        <mxCell id="R54soB560cXvakf5v9Yd-150" value="N" style="resizable=0;html=1;whiteSpace=wrap;align=right;verticalAlign=bottom;" connectable="0" vertex="1" parent="R54soB560cXvakf5v9Yd-149">
          <mxGeometry x="1" relative="1" as="geometry">
            <mxPoint x="-20" y="30" as="offset" />
          </mxGeometry>
        </mxCell>
        <mxCell id="R54soB560cXvakf5v9Yd-154" value="Orden" style="ellipse;whiteSpace=wrap;html=1;align=center;rounded=0;" vertex="1" parent="1">
          <mxGeometry x="50" y="560" width="100" height="40" as="geometry" />
        </mxCell>
        <mxCell id="R54soB560cXvakf5v9Yd-155" value="" style="endArrow=none;html=1;rounded=0;exitX=1;exitY=0.5;exitDx=0;exitDy=0;" edge="1" parent="1" source="R54soB560cXvakf5v9Yd-144" target="R54soB560cXvakf5v9Yd-154">
          <mxGeometry relative="1" as="geometry">
            <mxPoint x="-206" y="490" as="sourcePoint" />
            <mxPoint x="-32" y="451" as="targetPoint" />
          </mxGeometry>
        </mxCell>
        <mxCell id="R54soB560cXvakf5v9Yd-156" value="Autor" style="ellipse;shape=doubleEllipse;margin=3;whiteSpace=wrap;html=1;align=center;" vertex="1" parent="1">
          <mxGeometry x="79" y="270" width="100" height="40" as="geometry" />
        </mxCell>
        <mxCell id="WZIur2dekSQXCgkH3FN3-4" value="" style="endArrow=none;html=1;rounded=0;entryX=1;entryY=0.5;entryDx=0;entryDy=0;" edge="1" parent="1" source="F2TKBF6CCEz36gfDEs-T-1" target="APVeMAIhSpdHvaPCX0QN-1">
          <mxGeometry relative="1" as="geometry">
            <mxPoint x="-30" y="390" as="sourcePoint" />
            <mxPoint x="-90" y="280" as="targetPoint" />
          </mxGeometry>
        </mxCell>
        <mxCell id="WZIur2dekSQXCgkH3FN3-5" value="1" style="resizable=0;html=1;whiteSpace=wrap;align=right;verticalAlign=bottom;" connectable="0" vertex="1" parent="WZIur2dekSQXCgkH3FN3-4">
          <mxGeometry x="1" relative="1" as="geometry">
            <mxPoint y="60" as="offset" />
          </mxGeometry>
        </mxCell>
        <mxCell id="WZIur2dekSQXCgkH3FN3-8" value="ID" style="ellipse;whiteSpace=wrap;html=1;align=center;fontStyle=4;" vertex="1" parent="1">
          <mxGeometry x="-270" y="430" width="100" height="40" as="geometry" />
        </mxCell>
        <mxCell id="WZIur2dekSQXCgkH3FN3-9" value="ID" style="ellipse;whiteSpace=wrap;html=1;align=center;fontStyle=4;" vertex="1" parent="1">
          <mxGeometry x="340" y="630" width="100" height="40" as="geometry" />
        </mxCell>
        <mxCell id="WZIur2dekSQXCgkH3FN3-11" value="DNI" style="ellipse;whiteSpace=wrap;html=1;align=center;fontStyle=4;" vertex="1" parent="1">
          <mxGeometry x="-116.25" y="1012.69" width="100" height="40" as="geometry" />
        </mxCell>
        <mxCell id="WZIur2dekSQXCgkH3FN3-13" value="Tipo" style="ellipse;whiteSpace=wrap;html=1;align=center;fontStyle=4;" vertex="1" parent="1">
          <mxGeometry x="990" y="700" width="100" height="40" as="geometry" />
        </mxCell>
        <mxCell id="WZIur2dekSQXCgkH3FN3-16" value="" style="endArrow=none;html=1;rounded=0;" edge="1" parent="1" source="R54soB560cXvakf5v9Yd-26" target="R54soB560cXvakf5v9Yd-27">
          <mxGeometry relative="1" as="geometry">
            <mxPoint x="188" y="1060" as="sourcePoint" />
            <mxPoint x="162" y="1125" as="targetPoint" />
          </mxGeometry>
        </mxCell>
        <mxCell id="R54soB560cXvakf5v9Yd-83" value="Actuo" style="shape=rhombus;perimeter=rhombusPerimeter;whiteSpace=wrap;html=1;align=center;fillColor=#f8cecc;strokeColor=#b85450;" vertex="1" parent="1">
          <mxGeometry x="126.25" y="690" width="120" height="60" as="geometry" />
        </mxCell>
        <mxCell id="QxDpPw9N83aRyY8uLVnw-3" value="" style="endArrow=none;html=1;rounded=0;exitX=0.91;exitY=0;exitDx=0;exitDy=0;exitPerimeter=0;" edge="1" parent="1" source="F2TKBF6CCEz36gfDEs-T-1" target="R54soB560cXvakf5v9Yd-156">
          <mxGeometry relative="1" as="geometry">
            <mxPoint x="-66" y="390" as="sourcePoint" />
            <mxPoint x="-175" y="344" as="targetPoint" />
          </mxGeometry>
        </mxCell>
        <mxCell id="bRrDwt_AE6-zE5yciTz6-1" value="ID Actuacion" style="ellipse;whiteSpace=wrap;html=1;align=center;fontStyle=4;" vertex="1" parent="1">
          <mxGeometry x="-100" y="792" width="100" height="40" as="geometry" />
        </mxCell>
        <mxCell id="bRrDwt_AE6-zE5yciTz6-3" value="" style="endArrow=none;html=1;rounded=0;entryX=0.393;entryY=0.067;entryDx=0;entryDy=0;entryPerimeter=0;exitX=0.413;exitY=1.033;exitDx=0;exitDy=0;exitPerimeter=0;" edge="1" parent="1" source="F2TKBF6CCEz36gfDEs-T-53" target="bRrDwt_AE6-zE5yciTz6-1">
          <mxGeometry relative="1" as="geometry">
            <mxPoint x="-70" y="738" as="sourcePoint" />
            <mxPoint x="-94" y="742" as="targetPoint" />
          </mxGeometry>
        </mxCell>
        <mxCell id="bRrDwt_AE6-zE5yciTz6-5" value="Recinto" style="ellipse;whiteSpace=wrap;html=1;align=center;rounded=0;" vertex="1" parent="1">
          <mxGeometry x="-230" y="652" width="100" height="40" as="geometry" />
        </mxCell>
        <mxCell id="bRrDwt_AE6-zE5yciTz6-7" value="Fecha" style="ellipse;whiteSpace=wrap;html=1;align=center;rounded=0;" vertex="1" parent="1">
          <mxGeometry x="-200" y="720" width="100" height="40" as="geometry" />
        </mxCell>
        <mxCell id="Z_2YrPBkpbISrrUh0GBC-1" value="Unidades&lt;br&gt;Inventario" style="ellipse;whiteSpace=wrap;html=1;align=center;dashed=1;" vertex="1" parent="1">
          <mxGeometry x="920" y="650" width="100" height="40" as="geometry" />
        </mxCell>
        <mxCell id="7u01iin0jwhjByY1DlLq-1" value="Propio de" style="shape=rhombus;perimeter=rhombusPerimeter;whiteSpace=wrap;html=1;align=center;fillColor=#f8cecc;strokeColor=#b85450;" vertex="1" parent="1">
          <mxGeometry x="270" y="832" width="120" height="60" as="geometry" />
        </mxCell>
        <mxCell id="7u01iin0jwhjByY1DlLq-5" value="" style="endArrow=none;html=1;rounded=0;entryX=0.73;entryY=-0.014;entryDx=0;entryDy=0;exitX=0.5;exitY=1;exitDx=0;exitDy=0;entryPerimeter=0;" edge="1" parent="1" source="7u01iin0jwhjByY1DlLq-1" target="F2TKBF6CCEz36gfDEs-T-43">
          <mxGeometry relative="1" as="geometry">
            <mxPoint x="500" y="800" as="sourcePoint" />
            <mxPoint x="500" y="752" as="targetPoint" />
            <Array as="points">
              <mxPoint x="330" y="930" />
              <mxPoint x="210" y="930" />
            </Array>
          </mxGeometry>
        </mxCell>
        <mxCell id="7u01iin0jwhjByY1DlLq-6" value="1" style="resizable=0;html=1;whiteSpace=wrap;align=right;verticalAlign=bottom;" connectable="0" vertex="1" parent="7u01iin0jwhjByY1DlLq-5">
          <mxGeometry x="1" relative="1" as="geometry">
            <mxPoint x="59" y="-50" as="offset" />
          </mxGeometry>
        </mxCell>
        <mxCell id="7u01iin0jwhjByY1DlLq-8" value="" style="endArrow=none;html=1;rounded=0;entryX=0.5;entryY=0;entryDx=0;entryDy=0;exitX=0;exitY=0.75;exitDx=0;exitDy=0;" edge="1" parent="1" source="F2TKBF6CCEz36gfDEs-T-23" target="7u01iin0jwhjByY1DlLq-1">
          <mxGeometry relative="1" as="geometry">
            <mxPoint x="450" y="737" as="sourcePoint" />
            <mxPoint x="330" y="827" as="targetPoint" />
            <Array as="points">
              <mxPoint x="330" y="732" />
            </Array>
          </mxGeometry>
        </mxCell>
        <mxCell id="7u01iin0jwhjByY1DlLq-9" value="N" style="resizable=0;html=1;whiteSpace=wrap;align=right;verticalAlign=bottom;" connectable="0" vertex="1" parent="7u01iin0jwhjByY1DlLq-8">
          <mxGeometry x="1" relative="1" as="geometry">
            <mxPoint x="20" y="-52" as="offset" />
          </mxGeometry>
        </mxCell>
        <mxCell id="Rxg5e6lH1jKgtLaI-hLt-1" value="" style="endArrow=none;html=1;rounded=0;entryX=0.996;entryY=0.372;entryDx=0;entryDy=0;entryPerimeter=0;" edge="1" parent="1" source="F2TKBF6CCEz36gfDEs-T-43" target="R54soB560cXvakf5v9Yd-40">
          <mxGeometry relative="1" as="geometry">
            <mxPoint x="136" y="1029" as="sourcePoint" />
            <mxPoint x="-17" y="1028" as="targetPoint" />
          </mxGeometry>
        </mxCell>
        <mxCell id="R54soB560cXvakf5v9Yd-40" value="Disponible" style="ellipse;whiteSpace=wrap;html=1;align=center;" vertex="1" parent="1">
          <mxGeometry x="543.89" y="1468.13" width="100" height="40" as="geometry" />
        </mxCell>
      </root>
    </mxGraphModel>
  </diagram>
</mxfile>
